<svg width="65" height="25" viewBox="0 0 65 25" fill="none" xmlns="http://www.w3.org/2000/svg">
<path fill-rule="evenodd" clip-rule="evenodd" d="M36.3292 12.0811C35.8455 9.56312 34.6364 7.74158 32.5942 6.53615C31.0088 5.62538 29.2085 5.25036 27.032 5.43787C23.7001 5.73253 21.1742 7.17905 19.5889 9.77742C18.1916 12.0276 17.8154 14.5456 18.4066 17.3314C18.8902 19.5816 20.0994 21.3763 21.9535 22.7157C23.8613 24.0819 26.0378 24.7783 28.4024 24.7783C29.4504 24.7783 29.8534 24.7783 30.982 24.5104C33.051 24.0015 34.717 22.8228 35.2813 22.4478C35.3887 22.3943 35.4156 22.2603 35.3887 22.1532C35.1469 21.4835 34.2064 19.3941 31.6806 20.7602H31.6537C30.9282 21.1085 30.6595 21.2692 29.2623 21.3763C26.5752 21.5906 24.4256 20.8942 23.7269 19.6352L36.4098 15.5099V15.5903C36.4098 15.4295 36.4367 15.2688 36.4636 15.1349C36.4904 14.7866 36.5442 14.492 36.5173 14.1705C36.4904 13.4473 36.4367 12.7508 36.3292 12.0811ZM25.9849 9.13501C26.576 8.97429 27.1403 8.89393 27.6777 8.89393C28.2957 8.89393 28.8869 9.00108 29.4243 9.18859C30.8216 9.69755 31.8426 10.6351 32.1382 12.1352C32.1651 12.2959 32.192 12.8049 32.192 13.0192L22.3842 16.2604C21.5781 11.9477 24.0502 9.67076 25.9849 9.13501Z" fill="#2C2650"/>
<path fill-rule="evenodd" clip-rule="evenodd" d="M14.5101 11.437L17.3583 8.00825C17.4927 7.82074 17.5733 7.66002 17.5733 7.4993C17.5733 6.96355 17.5733 6.32065 17.5733 5.89206C17.5733 5.54382 17.3046 5.30273 16.9015 5.30273H0.859856H0.591151V5.83848C0.725504 7.95468 2.20338 9.05296 3.68126 9.05296H11.0169L10.8826 9.21368C9.64651 10.7138 8.35673 12.2139 7.12068 13.6604C6.66388 14.1961 6.18022 14.7587 5.72342 15.2944L4.80982 16.3659C3.33194 18.1339 1.77345 19.9554 0.268705 21.7769C0.268705 21.7769 0.241835 21.8037 0.214964 21.8037C0.134353 21.8841 0 22.018 0 22.2591C0 22.6877 0 23.277 0 23.7324V24.161C0 24.5093 0.268705 24.8843 0.671763 24.8843H17.4927V24.3753C17.4927 23.3306 17.439 22.3395 16.7941 21.7502C16.0148 21.0001 15.1281 21.0537 14.5369 21.0805H14.4832C14.4026 21.0805 14.322 21.1073 14.2951 21.1073C14.2682 21.1073 14.2682 21.1073 14.2682 21.1073H6.47579C6.63701 20.9197 6.82511 20.7322 6.90572 20.5983C9.40468 17.6249 11.9305 14.5444 14.5101 11.437Z" fill="#2C2650"/>
<path fill-rule="evenodd" clip-rule="evenodd" d="M45.9474 21.1888C45.5981 21.1888 45.2757 21.162 45.0338 21.162C43.5022 21.162 43.0723 20.4655 42.6961 18.9386C42.5618 18.4029 42.5349 17.8404 42.4811 17.2778C42.3737 15.4831 42.5349 9.05412 42.5349 9.05412H43.9053C44.0128 9.05412 44.2009 9.05412 44.2815 9.02733C45.8668 8.51837 46.1355 7.07185 46.1893 6.24145V5.59855H42.5349V0.508959C42.5349 0.187511 42.5349 0 42.4811 0C40.4659 0 39.4448 0.883982 39.0686 1.259C38.773 1.55367 38.5849 1.92869 38.5849 2.25014V9.42914C38.5849 10.3399 38.5581 11.2507 38.5581 12.1347C38.5581 13.3401 38.5312 14.5991 38.5312 15.8313C38.5312 16.0992 38.5312 16.3938 38.5312 16.6617C38.5312 17.4118 38.5043 18.2154 38.6118 18.9654C38.8268 20.4387 39.2567 21.6174 39.8747 22.421C40.9495 23.7871 42.1318 24.6443 44.174 24.7247C44.2546 24.7247 44.4964 24.7247 44.5502 24.7247H47.7209C48.1777 21.2691 45.9474 21.1888 45.9474 21.1888Z" fill="#2C2650"/>
<path fill-rule="evenodd" clip-rule="evenodd" d="M64.9194 12.2697C64.9194 11.7339 64.8657 11.2785 64.785 10.6892C64.3551 7.79617 62.7966 5.97464 60.1902 5.22459C58.0943 4.63527 55.8372 4.71563 53.4726 5.49246C52.2365 5.89427 51.1886 6.43002 50.3018 7.12649L50.2212 7.20685L50.275 7.314C51.5916 9.48378 52.9083 9.29626 53.3919 9.10875C53.4457 9.08197 53.5263 9.05518 53.58 9.02839L53.6338 9.0016C54.6817 8.51943 55.7028 8.27835 56.7776 8.22477C58.2286 8.14441 59.3572 8.51943 60.0827 9.26948C60.7813 9.99273 61.0769 11.0374 60.9963 12.4036H60.9694C60.8619 12.4036 60.7813 12.4036 60.6739 12.4304C60.6739 12.4304 49.0927 10.716 48.9583 18.5647C48.7971 20.4666 49.5763 22.2881 50.9736 23.3596C52.344 24.3775 53.7681 24.9133 55.2998 24.9133C56.3477 24.9133 57.4494 24.6722 58.578 24.1632C59.7871 23.6275 60.5664 22.7167 61.3725 21.4845V22.2613C61.3725 22.6096 61.3725 24.1097 64.5432 24.3775L65 24.4311C64.9194 24.3775 64.9194 14.1448 64.9194 12.2697ZM57.1542 21.4057C55.6225 22.1022 53.6072 21.7004 52.6668 20.5217C51.7532 19.3431 51.9413 17.6555 53.0967 16.7179C53.8491 16.1286 54.7627 15.7536 55.8375 15.6465C56.9123 15.5125 57.9871 15.4322 59.1157 15.3518C59.5456 15.325 59.9487 15.2446 60.3786 15.2446L60.4055 15.2714V15.2982C60.5936 17.8698 59.2232 20.4682 57.1542 21.4057Z" fill="#2C2650"/>
</svg>
